<svg width="120" height="257" viewBox="0 0 120 257" fill="none" xmlns="http://www.w3.org/2000/svg">
<path d="M74 178H47V257H74V178Z" fill="#9F7535"/>
<path opacity="0.1" d="M58 178H74V257H58V178Z" fill="black"/>
<path fill-rule="evenodd" clip-rule="evenodd" d="M93 32.5C93 40.6513 89.9991 48.1017 85.0419 53.8068C94.1625 61.1382 100 72.3874 100 85C100 89.6771 99.1973 94.1667 97.7221 98.3386C111.312 109.338 120 126.155 120 145C120 178.137 93.1371 205 60 205C26.8629 205 0 178.137 0 145C0 126.155 8.68834 109.338 22.2779 98.3386C20.8027 94.1667 20 89.6771 20 85C20 72.1138 26.0935 60.6508 35.5562 53.3353C30.8391 47.6941 28 40.4286 28 32.5C28 14.5508 42.5508 0 60.5 0C78.4492 0 93 14.5508 93 32.5Z" fill="#9CC27E"/>
<path opacity="0.1" fill-rule="evenodd" clip-rule="evenodd" d="M60 205C93.1371 205 120 178.137 120 145C120 126.155 111.312 109.338 97.7221 98.3386C99.1973 94.1667 100 89.6771 100 85C100 72.3874 94.1625 61.1382 85.0419 53.8068C89.9991 48.1017 93 40.6513 93 32.5C93 14.5507 78.4493 0 60.5 0C60.333 0 60.1664 0.00126076 60 0.00376892V205Z" fill="black"/>
</svg>
