<svg width="149" height="166" viewBox="0 0 149 166" fill="none" xmlns="http://www.w3.org/2000/svg">
<path d="M88 87H61V166H88V87Z" fill="#9F7535"/>
<path opacity="0.1" d="M72 87H88V166H72V87Z" fill="black"/>
<path fill-rule="evenodd" clip-rule="evenodd" d="M108.564 29.002C105.932 12.5615 91.683 0 74.5 0C57.317 0 43.068 12.5615 40.436 29.002C40.291 29.001 40.145 29 40 29C17.909 29 0 46.909 0 69C0 91.091 17.909 109 40 109C54.7 109 67.548 101.07 74.5 89.255C81.452 101.07 94.3 109 109 109C131.091 109 149 91.091 149 69C149 46.909 131.091 29 109 29C108.855 29 108.709 29.001 108.564 29.002Z" fill="#9CC27E"/>
<path opacity="0.1" fill-rule="evenodd" clip-rule="evenodd" d="M74 90.082C74.17 89.808 74.337 89.533 74.5 89.255C81.452 101.07 94.3 109 109 109C131.091 109 149 91.091 149 69C149 46.909 131.091 29 109 29C108.855 29 108.709 29.001 108.564 29.002C105.932 12.5615 91.683 0 74.5 0C74.333 0 74.166 0.00120107 74 0.00360107V90.082Z" fill="black"/>
</svg>
